<svg xmlns="http://www.w3.org/2000/svg" viewBox="-.2 .1 38.3 41.35"><path d="m 25.99,8.75 h -.3 v -6.23 c .26,.63 .3,1.26 .3,1.78 z m -11.79,-2.48 c .37,.11 .78,.19 1.22,.22 v -.3 c -.37,-.04 -.78,-.11 -1.15,-.22 -.48,-.11 -.93,-.22 -1.37,-.22 -.22,0 -.44,.04 -.63,.11 v .33 c .15,-.07 .37,-.11 .63,-.11 .41,-.04 .85,.07 1.3,.19 z m -3.6,-.22 c .26,0 .48,.04 .63,.11 v -.33 c -.19,-.07 -.41,-.11 -.63,-.11 -.44,0 -.89,.11 -1.37,.22 -.37,.11 -.74,.19 -1.15,.22 v .3 c .41,-.04 .82,-.11 1.22,-.22 .48,-.07 .89,-.19 1.3,-.19 z m 0,-.74 c .26,0 .48,.07 .63,.11 v -.33 c -.19,-.07 -.41,-.07 -.63,-.11 -.44,0 -.89,.11 -1.37,.22 -.37,.11 -.74,.19 -1.15,.22 v .3 c .44,-.04 .82,-.11 1.22,-.22 .48,-.11 .89,-.22 1.3,-.19 z m 0,1.52 c .26,0 .48,.04 .63,.11 v -.33 c -.19,-.07 -.41,-.07 -.63,-.11 -.44,0 -.89,.11 -1.37,.22 -.37,.11 -.74,.19 -1.15,.22 v .3 c .44,-.04 .82,-.15 1.22,-.22 .48,-.11 .89,-.22 1.3,-.19 z m 0,-2.3 c .26,0 .48,.07 .63,.11 v -.33 c -.19,-.07 -.41,-.11 -.63,-.11 -.44,0 -.89,.11 -1.37,.22 -.37,.11 -.74,.19 -1.15,.22 v .3 c .41,-.04 .82,-.11 1.22,-.22 .48,-.07 .89,-.19 1.3,-.19 z M 8.6,27.21 C 4.93,21.17 5,15.28 5,14.54 V .26 H 32.81 V 14.54 c 0,.74 .07,6.64 -3.6,12.68 -3.26,5.49 -8.19,7.9 -10.31,8.64 -2.08,-.74 -7.01,-3.15 -10.31,-8.64 z m 7.41,-1.11 -.74,-.59 .41,-.89 -.96,.19 -.41,-.85 -.44,.85 -.93,-.19 .41,.89 -.74,.59 .93,.22 v .96 l .78,-.59 .74,.59 v -.96 z m 3.97,6.04 .93,-.44 -.93,-.41 .33,-.96 -.96,.37 -.41,-.93 -.41,.89 -.96,-.37 .37,.96 -.93,.41 .93,.44 -.37,.96 .96,-.37 .41,.93 .41,-.93 .96,.37 z m -2.04,-11.05 -.74,.63 .93,.22 v .96 l .74,-.59 .78,.59 .04,-.96 .93,-.22 -.74,-.63 .41,-.89 -.96,.19 -.41,-.85 -.41,.85 -.96,-.19 z m 3.26,6.08 .56,-.59 -.82,-.15 -.37,-.74 -.37,.74 -.82,.15 .59,.59 -.15,.82 .74,-.37 .74,.37 z m 2.74,-2.93 .44,-.74 h -.85 l -.41,-.74 -.41,.74 h -.85 l .44,.74 -.44,.74 h .85 l .41,.74 .41,-.74 H 24.39 Z M 30.47,6.38 c -.22,.11 -.41,.3 -.52,.52 -.11,.19 -.15,.37 -.15,.56 0,.04 0,.07 0,.15 .11,-.07 .22,-.15 .33,-.22 .07,-.07 .15,-.19 .22,-.26 .07,-.15 .11,-.37 .11,-.56 0,-.07 0,-.15 0,-.19 z m -2.89,4.26 c .22,.11 .48,.15 .74,.11 .26,-.04 .44,-.15 .63,-.33 -.22,-.11 -.44,-.15 -.7,-.11 -.26,.04 -.48,.19 -.67,.33 z m 0,-.41 c .11,-.19 .19,-.41 .19,-.63 0,-.04 0,-.04 0,-.07 -.22,.11 -.41,.26 -.56,.44 v 0 c -.11,.19 -.19,.41 -.19,.63 0,.04 0,.04 0,.07 .26,-.07 .44,-.22 .56,-.44 z m .3,-.07 c 0,0 0,.04 0,0 .07,0 .11,0 .15,-.04 .15,-.11 .22,-.26 .3,-.44 .04,-.11 .07,-.26 .07,-.37 0,-.11 -.04,-.22 -.07,-.33 -.15,.11 -.26,.22 -.33,.37 0,.33 -.04,.59 -.11,.82 z m .7,-.59 c 0,.04 0,.04 0,0 .07,0 .11,-.04 .15,-.07 .11,-.15 .15,-.3 .19,-.48 0,-.04 0,-.07 0,-.11 0,-.19 -.07,-.41 -.19,-.59 -.11,.15 -.22,.3 -.26,.44 .11,.33 .15,.56 .11,.82 z m .52,-.74 c 0,.04 0,.04 0,0 .07,0 .11,-.04 .15,-.11 .04,-.11 .07,-.22 .07,-.37 0,-.04 0,-.11 0,-.15 -.04,-.22 -.15,-.44 -.33,-.63 -.07,.15 -.11,.33 -.11,.48 .11,.3 .19,.52 .22,.78 z m .37,-.85 c 0,.04 0,.04 0,0 .07,-.04 .07,-.07 .11,-.15 0,-.04 0,-.04 0,-.07 0,-.15 -.04,-.3 -.07,-.44 -.07,-.22 -.26,-.37 -.48,-.52 -.04,.07 -.04,.19 -.04,.26 0,.07 0,.15 .04,.22 .22,.26 .37,.48 .44,.7 z m .15,-.89 c 0,0 0,0 0,0 .04,-.04 .07,-.11 .07,-.15 -.04,-.19 -.07,-.33 -.19,-.48 -.15,-.19 -.33,-.33 -.59,-.41 0,.19 .04,.37 .11,.52 .26,.11 .44,.3 .59,.52 z m -.04,-1.07 c -.07,-.19 -.15,-.33 -.3,-.44 -.19,-.15 -.37,-.22 -.63,-.26 .04,.19 .11,.33 .22,.44 .26,.07 .48,.22 .67,.37 0,0 .04,0 .04,0 0,0 0,-.04 0,-.11 z m -.3,-.7 c 0,-.07 -.04,-.11 -.04,-.19 -.11,-.15 -.22,-.26 -.37,-.33 -.22,-.11 -.44,-.15 -.7,-.11 .11,.15 .19,.3 .33,.41 .3,0 .56,.07 .78,.22 0,0 0,0 0,0 z M 29.14,10.05 c .22,-.07 .41,-.26 .56,-.48 -.26,-.04 -.52,-.04 -.74,.04 -.19,.07 -.37,.26 -.52,.44 .11,0 .26,.04 .37,.07 .11,0 .22,0 .33,-.07 z m .63,-.85 c .19,-.15 .33,-.37 .44,-.63 -.26,0 -.52,.07 -.7,.22 v 0 c -.19,.15 -.33,.33 -.41,.56 .11,-.04 .26,-.04 .37,-.04 .11,0 .22,-.04 .3,-.11 z m .67,-1.71 c -.22,.07 -.44,.19 -.63,.37 -.15,.19 -.22,.41 -.26,.67 .11,-.04 .22,-.07 .37,-.11 .11,-.07 .19,-.15 .26,-.22 .19,-.19 .26,-.44 .26,-.7 z m -.22,-2.22 c -.19,.19 -.33,.37 -.41,.63 -.04,.07 -.04,.19 -.04,.3 0,.15 .04,.3 .07,.41 .07,-.11 .19,-.19 .26,-.26 .07,-.11 .11,-.22 .15,-.33 .04,-.07 .04,-.19 .04,-.26 .04,-.15 0,-.3 -.07,-.48 z m -.74,-.3 c 0,.22 .07,.44 .22,.67 .04,-.11 .11,-.22 .19,-.33 .04,-.11 .07,-.22 .07,-.33 0,0 0,0 0,0 0,-.26 -.07,-.48 -.22,-.7 -.15,.22 -.26,.44 -.26,.7 0,0 0,0 0,0 z m -.59,-1.07 c 0,.07 0,.19 .04,.26 .04,.22 .19,.41 .37,.59 .04,-.11 .07,-.26 .11,-.37 0,-.04 0,-.04 0,-.07 0,-.07 0,-.15 -.04,-.26 -.07,-.22 -.19,-.44 -.41,-.63 -.04,.15 -.07,.3 -.07,.48 z m -.11,.44 c -.15,-.11 -.3,-.19 -.44,-.26 -.22,-.07 -.48,-.04 -.7,.04 .11,.15 .26,.26 .41,.33 .26,-.04 .56,-.04 .78,.04 0,0 .04,0 .04,0 -.04,-.04 -.04,-.07 -.07,-.15 z m -.7,-1.41 c 0,.19 .04,.37 .11,.56 .11,.22 .3,.37 .52,.48 0,-.15 0,-.26 .04,-.41 -.04,-.11 -.04,-.22 -.11,-.3 -.11,-.22 -.3,-.41 -.52,-.52 -.04,.07 -.04,.11 -.04,.19 z m -.96,.07 c .07,.26 .22,.48 .41,.59 .19,.11 .41,.19 .63,.22 -.07,-.07 -.11,-.15 -.19,-.26 v 0 c -.04,-.07 -.07,-.19 -.11,-.26 -.04,-.04 -.04,-.04 -.07,-.07 -.15,-.15 -.37,-.22 -.67,-.22 z m -2.89,5.82 c 0,.19 .15,.41 .48,.41 h .63 c -.07,.22 -.15,.56 -.15,.89 0,.44 .07,.82 .22,1.07 -.48,-.07 -.82,-.19 -1.15,-.37 h -.04 l -.07,.19 h .04 c .3,.15 .56,.22 .89,.33 0,0 .26,.04 .44,.07 -.04,.04 -.07,.11 -.07,.19 0,.15 .11,.26 .26,.26 .15,0 .26,-.11 .26,-.26 0,-.07 -.04,-.15 -.07,-.19 .19,-.04 .41,-.07 .41,-.07 .33,-.07 .63,-.15 .93,-.33 h .04 l -.07,-.22 h -.04 c -.33,.19 -.67,.3 -1.15,.37 .11,-.26 .22,-.63 .22,-1.07 0,-.33 -.04,-.67 -.15,-.89 h .63 c .33,0 .48,-.19 .48,-.41 0,-.15 -.11,-.3 -.3,-.3 -.15,0 -.3,.11 -.3,.3 0,.04 0,.07 .04,.11 .04,.04 .04,.11 -.07,.11 H 26.17 v -4.71 c 0,-.63 -.04,-1.41 -.41,-2.15 l -.11,-.22 -.11,.22 c -.37,.74 -.41,1.52 -.41,2.15 v 4.71 h -.37 c -.11,0 -.07,-.07 -.07,-.11 0,-.04 .04,-.07 .04,-.11 0,-.15 -.11,-.3 -.26,-.3 -.11,.04 -.26,.19 -.26,.33 z m -.78,.56 c -.07,-.15 -.19,-.26 -.33,-.37 -.04,.11 -.07,.22 -.07,.33 0,.11 .04,.26 .07,.37 .04,.19 .15,.3 .26,.44 .04,0 .11,.04 .15,.04 0,0 0,-.04 0,-.04 -.07,-.22 -.11,-.48 -.07,-.78 z m -.22,-4.71 c -.22,-.04 -.48,0 -.7,.11 -.15,.07 -.3,.19 -.37,.33 0,.07 0,.11 -.04,.19 0,0 .04,0 .04,0 .22,-.15 .48,-.22 .78,-.22 .11,-.11 .22,-.26 .3,-.41 z m -.26,4.11 c -.04,-.15 -.15,-.3 -.26,-.44 -.11,.19 -.19,.37 -.19,.59 0,.04 0,.07 0,.11 0,.19 .07,.33 .19,.48 .04,.04 .11,.07 .15,.11 0,0 0,-.04 0,-.04 -.04,-.3 0,-.52 .11,-.82 z m -.85,-.41 c 0,.11 .04,.22 .07,.37 .04,.04 .07,.07 .11,.11 0,0 0,-.04 .04,-.04 .04,-.26 .11,-.52 .26,-.74 0,-.19 -.07,-.33 -.15,-.48 -.19,.19 -.3,.41 -.33,.63 0,.04 0,.11 0,.15 z m .3,-1.04 c .04,-.07 .04,-.15 .04,-.22 0,-.07 -.04,-.19 -.04,-.26 -.22,.15 -.37,.3 -.48,.52 -.07,.15 -.07,.3 -.07,.44 0,.04 0,.04 0,.07 .04,.04 .07,.11 .07,.15 0,0 .04,0 .04,-.04 .07,-.26 .22,-.48 .44,-.67 z m -.56,-1.33 c 0,.04 0,.11 0,.15 0,0 .04,0 .04,0 .19,-.19 .41,-.3 .67,-.37 .11,-.15 .19,-.3 .22,-.44 -.26,.04 -.48,.11 -.67,.26 -.11,.07 -.22,.26 -.26,.41 z m -.11,.93 c .04,.04 .04,.11 .04,.19 0,0 0,0 .04,0 .15,-.22 .33,-.41 .59,-.52 .07,-.15 .11,-.33 .11,-.52 -.26,.07 -.44,.22 -.59,.41 -.11,.11 -.19,.26 -.19,.44 z m -.15,.93 c -.15,-.19 -.37,-.3 -.63,-.37 .04,.26 .11,.48 .26,.67 .07,.07 .19,.15 .26,.22 .11,.04 .22,.07 .33,.11 0,-.22 -.07,-.44 -.22,-.63 z m -.37,.7 c .07,.26 .22,.48 .41,.63 .07,.07 .19,.11 .3,.15 .15,0 .26,0 .37,.04 -.11,-.22 -.22,-.44 -.41,-.56 v 0 c -.15,-.19 -.41,-.26 -.67,-.26 z m .52,1.04 c .15,.22 .3,.37 .56,.48 .11,.04 .22,.07 .33,.07 .11,-.04 .26,-.04 .37,-.07 -.15,-.19 -.33,-.37 -.52,-.44 -.22,-.11 -.48,-.11 -.74,-.04 z m .74,.85 c .19,.19 .41,.3 .67,.33 .22,.04 .48,-.04 .7,-.11 -.19,-.19 -.41,-.3 -.67,-.33 v 0 c -.22,-.07 -.48,0 -.7,.11 z m 1.93,.22 c 0,-.04 0,-.04 0,-.07 0,-.22 -.07,-.44 -.19,-.63 v 0 c -.15,-.19 -.33,-.33 -.56,-.44 0,.04 0,.04 0,.07 0,.22 .07,.44 .19,.63 .11,.22 .3,.37 .56,.44 z M 23.43,3.56 c -.04,.07 -.11,.19 -.19,.26 .22,0 .44,-.07 .63,-.22 .19,-.15 .33,-.37 .44,-.59 -.26,0 -.52,.07 -.7,.22 -.04,.04 -.04,.04 -.07,.07 -.04,.07 -.07,.19 -.11,.26 z m -.74,0 c .04,.15 .04,.26 .04,.41 .22,-.11 .41,-.3 .48,-.48 .11,-.19 .15,-.37 .15,-.56 0,-.07 0,-.11 -.04,-.19 -.22,.11 -.41,.3 -.52,.52 -.04,.11 -.07,.19 -.11,.3 z m -.11,.96 c 0,0 .04,0 0,0 .3,-.07 .56,-.07 .82,-.04 .15,-.07 .3,-.19 .41,-.33 -.22,-.07 -.48,-.11 -.7,-.04 -.19,.04 -.33,.11 -.44,.26 -.04,.04 -.04,.07 -.07,.15 z m -.59,-.22 c 0,.04 0,.04 0,.07 .07,.11 .11,.26 .11,.37 .19,-.19 .3,-.37 .37,-.59 .04,-.07 .04,-.19 .04,-.26 0,-.15 -.04,-.33 -.11,-.48 -.19,.19 -.33,.37 -.41,.63 .04,.07 0,.15 0,.26 z m -.52,.67 c 0,.11 .04,.22 .07,.33 .07,.11 .15,.22 .19,.33 .11,-.19 .22,-.41 .22,-.67 0,0 0,0 0,0 0,-.22 -.11,-.48 -.22,-.7 -.15,.22 -.26,.44 -.26,.7 0,0 0,0 0,0 z m -.37,.78 c 0,.11 0,.19 .04,.26 .04,.11 .07,.22 .15,.33 .11,.07 .19,.15 .26,.26 .04,-.15 .07,-.3 .07,-.41 0,-.11 0,-.19 -.04,-.3 -.07,-.22 -.22,-.44 -.41,-.63 -.04,.15 -.07,.33 -.07,.48 z m -.19,.78 c 0,.19 .04,.41 .15,.56 .04,.11 .11,.19 .22,.26 .11,.04 .22,.11 .33,.19 0,-.04 0,-.11 0,-.15 0,-.19 -.04,-.37 -.15,-.56 -.11,-.22 -.3,-.41 -.56,-.52 0,.11 0,.19 0,.22 z m -9.01,2.93 c .26,-.19 .59,-.26 1,-.26 .44,0 .89,.07 1.37,.22 .48,.11 1.04,.26 1.56,.22 0,-.26 0,-5.45 0,-6.41 0,-.07 0,-.11 0,-.15 -.56,.04 -1.11,-.11 -1.63,-.22 -.44,-.11 -.89,-.22 -1.26,-.19 -.56,0 -.85,.19 -1.04,.33 v .22 z m -4.19,.15 c .52,.04 1.04,-.07 1.56,-.22 .48,-.11 .93,-.22 1.37,-.22 .41,0 .74,.11 1,.26 v -6.19 -.22 c -.19,-.19 -.48,-.33 -1.04,-.33 -.41,0 -.82,.07 -1.26,.19 -.52,.15 -1.04,.26 -1.63,.22 0,.04 0,.07 0,.15 0,.93 0,6.15 0,6.38 z M 6.71,10.64 c 0,0 4.34,0 4.49,0 .11,.19 .3,.33 .56,.33 .26,0 .48,-.15 .56,-.33 .15,0 4.49,0 4.49,0 V 3.23 H 16.64 16.24 l .04,.15 c 0,0 0,.04 0,.04 v 6.71 c -.33,0 -3.97,0 -4.15,0 -.07,.11 -.15,.15 -.37,.15 -.19,0 -.26,-.04 -.33,-.15 -.19,0 -3.52,0 -4.19,0 V 3.42 c 0,0 0,-.04 0,-.04 l .04,-.15 H 6.71 Z m 1.63,14.86 10.56,-9.49 10.6,9.53 c .7,-1.33 1.19,-2.63 1.59,-3.86 L 18.91,10.72 6.75,21.65 c .37,1.22 .89,2.52 1.59,3.86 z m 2.26,-17.94 c .26,0 .48,.04 .63,.11 v -.33 c -.19,-.07 -.41,-.07 -.63,-.11 -.44,0 -.89,.11 -1.37,.22 -.37,.11 -.74,.19 -1.15,.22 v .3 c .41,-.04 .82,-.15 1.22,-.22 .48,-.07 .89,-.19 1.3,-.19 z m 0,.78 c .26,0 .48,.04 .63,.11 v -.33 c -.19,-.07 -.41,-.11 -.63,-.11 -.44,0 -.89,.11 -1.37,.22 -.37,.11 -.74,.19 -1.15,.22 v .3 c .41,-.04 .82,-.15 1.22,-.22 .48,-.11 .89,-.22 1.3,-.19 z m 0,-4.56 c .26,0 .48,.07 .63,.11 v -.33 c -.19,-.07 -.41,-.07 -.63,-.11 -.44,0 -.89,.11 -1.37,.22 -.37,.11 -.74,.19 -1.15,.22 v .3 c .41,-.04 .82,-.11 1.22,-.22 .48,-.11 .89,-.19 1.3,-.19 z m 3.6,1.74 c .37,.11 .78,.19 1.22,.22 v -.3 c -.37,-.04 -.78,-.11 -1.15,-.22 -.48,-.11 -.93,-.22 -1.37,-.22 -.22,0 -.44,.04 -.63,.11 v .33 c .15,-.07 .37,-.11 .63,-.11 .41,-.07 .85,.04 1.3,.19 z m 0,-1.52 c .37,.11 .78,.19 1.22,.22 v -.3 c -.37,-.04 -.78,-.11 -1.15,-.22 -.48,-.11 -.93,-.22 -1.37,-.22 -.22,0 -.44,.04 -.63,.11 v .33 c .15,-.07 .37,-.11 .63,-.11 .41,-.04 .85,.04 1.3,.19 z m 0,3 c .37,.07 .82,.19 1.22,.22 v -.3 c -.41,-.04 -.78,-.11 -1.15,-.22 -.48,-.11 -.93,-.22 -1.33,-.22 -.22,0 -.44,.04 -.63,.07 v .33 c .15,-.07 .37,-.11 .63,-.11 .37,0 .82,.11 1.26,.22 z m 0,-2.26 c .37,.11 .78,.19 1.22,.22 v -.3 c -.37,-.04 -.78,-.11 -1.15,-.22 -.48,-.11 -.93,-.22 -1.37,-.22 -.22,0 -.44,.04 -.63,.11 v .33 c .15,-.07 .37,-.11 .63,-.11 .41,-.04 .85,.07 1.3,.19 z m 0,3.04 c .37,.11 .78,.19 1.22,.22 v -.3 c -.37,-.04 -.78,-.15 -1.15,-.22 -.48,-.11 -.93,-.22 -1.37,-.22 -.22,0 -.44,.04 -.63,.11 v .33 c .15,-.07 .37,-.11 .63,-.11 .41,-.04 .85,.07 1.3,.19 z m 0,.74 c .37,.11 .78,.19 1.22,.22 v -.3 c -.37,-.04 -.78,-.11 -1.15,-.22 -.48,-.11 -.93,-.22 -1.37,-.22 -.22,0 -.44,.04 -.63,.11 v .33 c .15,-.07 .37,-.11 .63,-.11 .41,-.04 .85,.07 1.3,.19 z m 23.65,15.75 -.07,.19 c -.7,2.34 -1.89,4.67 -2.74,6.19 l -.19,.3 -1.22,-1.11 c -.04,.07 -.11,.19 -.15,.26 -3.11,4.97 -7.49,8.56 -12.71,10.49 l -1.85,.67 -1.85,-.67 c -5.19,-1.89 -9.6,-5.52 -12.68,-10.49 -.04,-.07 -.07,-.19 -.15,-.26 l -1.26,1.11 -.19,-.33 c -.85,-1.56 -2,-3.89 -2.74,-6.19 L 0,24.29 l 3,-2.71 .37,-.33 .15,.44 c .15,.56 .33,1.07 .52,1.59 l .85,-.78 .33,-.3 .15,.44 c .63,1.89 1.48,3.67 2.48,5.26 2.63,4.19 6.3,7.23 10.64,8.82 0,0 .3,.11 .44,.15 .15,-.04 .44,-.15 .44,-.15 4.34,-1.59 8.04,-4.63 10.64,-8.82 1,-1.59 1.85,-3.37 2.48,-5.26 l .15,-.44 1.19,1.07 c .19,-.52 .37,-1.04 .52,-1.59 l .15,-.44 z m -35.36,4.45 -.56,-3.52 1.63,-1.48 c -.19,-.44 -.33,-.93 -.48,-1.41 -.48,.44 -2.15,1.93 -2.37,2.15 .48,1.48 1.11,2.97 1.78,4.26 z m 1.45,.59 c -.37,-.63 -.74,-1.3 -1.04,-1.96 l .41,2.56 c .11,-.15 .37,-.37 .63,-.59 z m 31.03,-1.96 c -.3,.67 -.67,1.33 -1.04,1.96 0,0 0,0 0,0 .26,.22 .48,.44 .63,.59 z m .22,-2.04 c -.26,-.22 -1.85,-1.67 -2.3,-2.08 -.63,1.78 -1.41,3.48 -2.37,5 -2.67,4.3 -6.45,7.41 -10.94,9.08 l -.67,.22 c 0,0 -.63,-.22 -.63,-.22 -4.49,-1.63 -8.23,-4.78 -10.94,-9.08 -.96,-1.52 -1.74,-3.23 -2.37,-5 -.48,.41 -2.04,1.85 -2.3,2.08 .59,1.56 1.37,3.08 2.22,4.45 3.04,4.86 7.34,8.38 12.42,10.23 0,0 1.48,.52 1.63,.59 .19,-.07 1.67,-.59 1.67,-.59 5.08,-1.85 9.38,-5.41 12.42,-10.23 .78,-1.33 1.56,-2.85 2.15,-4.45 z m 1.96,-.89 c -.22,-.22 -1.89,-1.71 -2.37,-2.15 -.15,.48 -.3,.96 -.48,1.41 l 1.63,1.48 -.56,3.56 c .63,-1.3 1.3,-2.78 1.78,-4.3 z m -31.95,4.52 .04,.15 -.11,.07 c -.07,-.11 -.11,-.22 -.19,-.37 -.07,-.11 -.15,-.22 -.22,-.37 l .11,-.04 .11,.11 c .11,-.11 .3,-.26 .37,-.41 l -.26,-.48 -.52,.11 .04,.15 -.07,.04 c -.04,-.11 -.11,-.19 -.15,-.3 -.04,-.07 -.07,-.15 -.15,-.26 l .11,-.04 .11,.11 c .37,0 1.15,-.15 1.63,-.22 .07,.11 .19,.19 .26,.26 l .04,.15 -.48,.59 c -.26,.26 -.56,.63 -.67,.74 z m .3,-1 .44,-.48 v 0 l -.67,.15 z m 2.71,2.74 .07,-.07 c -.07,-.07 -.11,-.15 -.19,-.26 -.07,-.07 -.11,-.19 -.19,-.26 l -.11,.07 .07,.15 c -.26,.19 -.85,.67 -.85,.67 v 0 c .15,-.44 .33,-.96 .52,-1.41 -.07,-.07 -.11,-.15 -.19,-.22 -.04,-.07 -.11,-.15 -.15,-.22 l -.07,.07 .07,.15 c -.11,.11 -.22,.19 -.37,.3 l -.41,.3 c -.15,.11 -.26,.19 -.41,.26 l -.11,-.11 -.07,.07 c .07,.07 .11,.15 .19,.26 .07,.07 .11,.19 .19,.26 l .07,-.07 -.11,-.19 c .26,-.19 .59,-.44 .89,-.67 v 0 c -.19,.44 -.33,.93 -.52,1.45 .04,.04 .07,.11 .11,.15 .04,.04 .07,.11 .11,.15 .15,-.11 .3,-.26 .52,-.41 l .41,-.3 c .15,-.11 .3,-.19 .41,-.26 z m .15,1.37 c -.41,.37 -.37,.93 -.04,1.26 .22,.22 .44,.37 .85,.41 l .04,-.22 c -.22,-.04 -.41,-.11 -.52,-.26 -.26,-.26 -.26,-.63 .04,-.93 .3,-.3 .63,-.19 .82,.04 .11,.11 .19,.26 .19,.41 l -.07,.15 .07,.11 c .11,-.07 .26,-.19 .37,-.22 -.07,-.22 -.19,-.37 -.33,-.56 -.41,-.48 -1,-.56 -1.41,-.19 z m 3.6,3.41 c -.33,.41 -.85,.44 -1.37,.04 -.48,-.41 -.56,-.89 -.19,-1.37 .33,-.41 .89,-.44 1.37,-.04 .48,.41 .56,.93 .19,1.37 z m -.37,-1.15 c -.26,-.22 -.59,-.11 -.85,.15 -.26,.3 -.26,.63 0,.85 .26,.22 .59,.11 .85,-.15 .22,-.3 .26,-.67 0,-.85 z m 2.97,2.37 c -.11,.22 -.37,.26 -.63,.15 .04,.19 .11,.82 .15,.93 l .04,.07 -.07,.11 c -.15,-.11 -.33,-.19 -.48,-.26 0,-.3 -.04,-.74 -.07,-1 l -.11,-.07 -.07,.15 c -.11,.15 -.19,.3 -.22,.41 l .11,.11 -.07,.11 c -.11,-.07 -.22,-.15 -.33,-.22 -.11,-.07 -.22,-.15 -.37,-.22 l .07,-.11 .15,.07 c .11,-.11 .19,-.26 .3,-.41 l .26,-.44 c .11,-.15 .19,-.3 .26,-.41 l -.11,-.11 .07,-.11 c .07,.07 .19,.11 .26,.19 .11,.07 .22,.11 .33,.19 .11,.07 .22,.11 .33,.19 .37,.22 .37,.48 .22,.7 z m -.56,-.63 c -.11,-.07 -.15,-.07 -.22,-.11 -.04,.07 -.11,.19 -.19,.3 l -.07,.11 c .04,.04 .07,.07 .11,.11 .22,.15 .41,.15 .52,-.04 .07,-.15 .04,-.26 -.15,-.37 z m 2.82,2 c -.04,.33 -.07,.82 -.07,1 l .11,.07 -.04,.11 c -.11,-.07 -.26,-.11 -.37,-.19 -.11,-.07 -.26,-.11 -.37,-.15 l .04,-.11 .15,.04 c .04,-.15 .07,-.37 .07,-.52 l -.52,-.22 -.33,.41 .11,.07 -.04,.11 c -.11,-.04 -.22,-.11 -.3,-.15 -.07,-.04 -.19,-.07 -.26,-.11 l .04,-.11 .15,.04 c .3,-.22 .82,-.78 1.19,-1.19 .15,.04 .26,.04 .37,.07 l .15,.11 z m -.37,-.67 v 0 l -.44,.52 .37,.19 z m 5.45,1.3 c -.07,-.15 -.15,-.26 -.22,-.44 l -.19,-.44 c -.07,-.19 -.15,-.3 -.19,-.44 l .15,-.07 -.04,-.11 c -.11,.07 -.26,.11 -.37,.19 -.11,.04 -.26,.11 -.37,.15 l .04,.11 .15,-.04 c .07,.15 .15,.26 .22,.44 l .19,.44 c .07,.19 .11,.3 .19,.44 l -.15,.07 .04,.11 c .11,-.07 .26,-.11 .37,-.19 .11,-.04 .26,-.11 .37,-.15 l -.04,-.11 z m 3.19,-1.71 c -.07,-.11 -.19,-.26 -.26,-.41 l -.26,-.44 c -.11,-.15 -.19,-.3 -.22,-.41 l .11,-.11 -.07,-.11 c -.11,.07 -.22,.15 -.3,.19 -.11,.07 -.22,.11 -.33,.19 .07,.22 .22,1.11 .26,1.3 -.19,-.15 -.85,-.67 -1,-.85 -.11,.07 -.22,.15 -.3,.19 -.11,.07 -.22,.11 -.33,.19 l .07,.11 .15,-.04 .11,.22 c .11,.22 .52,.89 .59,1.07 l -.11,.11 .07,.11 c .07,-.04 .19,-.11 .26,-.15 .07,-.04 .19,-.11 .26,-.15 l -.07,-.11 -.15,.07 c -.07,-.11 -.19,-.26 -.26,-.41 l -.15,-.26 c -.11,-.22 -.22,-.37 -.26,-.44 v 0 c .63,.56 1,.82 1.15,.96 l .22,-.15 -.3,-1.48 v 0 c .04,.07 .15,.22 .26,.44 l .15,.26 c .11,.15 .15,.3 .22,.44 l -.11,.11 .04,.11 c .11,-.07 .22,-.15 .33,-.22 .11,-.07 .26,-.15 .37,-.22 l -.04,-.11 z m 1.71,-1.3 c -.11,-.11 -.22,-.22 -.33,-.37 l -.22,-.3 c -.11,-.11 -.22,-.26 -.3,-.41 .04,-.04 .07,-.11 .15,-.15 .19,-.15 .33,-.11 .44,0 .11,.15 .15,.33 -.04,.44 -.04,.04 -.07,.07 -.11,.07 l .07,.22 c .07,-.04 .15,-.11 .22,-.15 .37,-.3 .37,-.67 .19,-.93 -.19,-.22 -.48,-.26 -.78,0 -.07,.07 -.15,.15 -.26,.22 -.11,.11 -.22,.19 -.3,.26 -.07,.07 -.19,.15 -.3,.22 l .07,.07 .15,-.07 c .11,.11 .22,.22 .33,.37 l .3,.41 c .11,.15 .22,.26 .3,.37 l -.11,.11 .07,.07 c .11,-.07 .22,-.19 .33,-.26 .11,-.07 .22,-.15 .37,-.3 l -.07,-.07 z m 2.93,-2.67 .07,.07 c -.11,.07 -.19,.19 -.3,.3 -.11,.11 -.19,.22 -.3,.3 l -.07,-.07 .07,-.11 c -.11,-.07 -.33,-.19 -.48,-.26 l -.41,.41 .26,.44 .11,-.07 .07,.07 c -.07,.07 -.15,.15 -.22,.22 -.07,.07 -.15,.15 -.19,.22 l -.07,-.07 .07,-.11 c -.11,-.33 -.48,-1.04 -.7,-1.52 .07,-.11 .15,-.22 .19,-.33 l .15,-.07 .67,.3 c .3,.15 .74,.33 .89,.37 z m -1.15,.11 -.63,-.3 v 0 l .33,.59 z m 3.04,-2.52 .07,.07 c -.11,.15 -.22,.3 -.3,.44 -.33,0 -.78,-.04 -1.04,-.04 l -.07,.11 .11,.11 c .15,.11 .26,.19 .41,.26 l .11,-.11 .11,.07 c -.07,.11 -.19,.22 -.26,.33 -.07,.11 -.15,.22 -.26,.33 l -.11,-.07 .07,-.15 c -.11,-.11 -.22,-.19 -.37,-.3 l -.41,-.3 c -.15,-.11 -.26,-.19 -.41,-.3 l -.11,.11 -.11,-.07 c .07,-.07 .15,-.15 .19,-.26 .07,-.11 .15,-.19 .22,-.3 .07,-.11 .15,-.19 .22,-.3 .3,-.41 .56,-.37 .74,-.22 .19,.15 .22,.41 .11,.63 .19,0 .82,-.04 .93,-.04 z m -1.37,-.15 c -.11,-.11 -.26,-.07 -.37,.11 -.07,.07 -.11,.15 -.15,.19 .07,.04 .15,.15 .3,.22 l .11,.07 c .04,-.04 .07,-.07 .11,-.11 .15,-.19 .15,-.33 0,-.48 z m 2.63,-1.56 c -.33,.56 -.82,.7 -1.3,.41 -.44,-.26 -.59,-.78 -.26,-1.33 .33,-.56 .78,-.7 1.3,-.41 .44,.22 .59,.78 .26,1.33 z m -.52,-.93 c -.33,-.19 -.67,-.15 -.85,.11 -.19,.3 -.04,.59 .3,.82 .33,.19 .67,.15 .85,-.11 .19,-.3 .04,-.63 -.3,-.82 z m -13.42,10.49 c -.19,0 -.37,.19 -.37,.41 0,.22 .19,.41 .37,.41 .22,0 .41,-.19 .41,-.41 0,-.22 -.19,-.41 -.41,-.41 z M 4.45,26.14 c .22,0 .41,-.19 .41,-.37 0,-.22 -.19,-.41 -.41,-.41 -.22,0 -.37,.19 -.37,.41 0,.19 .19,.37 .37,.37 z m 28.99,0 c .22,0 .41,-.19 .41,-.37 0,-.22 -.19,-.41 -.41,-.41 -.19,0 -.37,.19 -.37,.41 -.04,.19 .15,.37 .37,.37 z"/></svg>
